<?xml version="1.0" encoding="UTF-8"?>
<!DOCTYPE svg PUBLIC "-//W3C//DTD SVG 1.1//EN" "http://www.w3.org/Graphics/SVG/1.1/DTD/svg11.dtd">
<svg xmlns="http://www.w3.org/2000/svg" version="1.1" width="3023px" height="742px" style="shape-rendering:geometricPrecision; text-rendering:geometricPrecision; image-rendering:optimizeQuality; fill-rule:evenodd; clip-rule:evenodd" xmlns:xlink="http://www.w3.org/1999/xlink">
<g><path style="opacity:0.995" fill="#16A34A" d="M -0.5,393.5 C -0.5,378.167 -0.5,362.833 -0.5,347.5C 12.4366,240.435 67.7699,164.268 165.5,119C 221.763,96.5482 279.43,92.2148 338.5,106C 437.535,134.701 502.701,198.201 534,296.5C 556.276,384.45 540.609,464.783 487,537.5C 423.27,614.924 341.103,649.424 240.5,641C 145.574,627.494 75.0743,578.994 29,495.5C 12.9261,463.188 3.09282,429.188 -0.5,393.5 Z M 270.5,129.5 C 371.571,133.59 444.738,180.59 490,270.5C 523.261,349.615 517.927,425.948 474,499.5C 425.825,570.602 358.491,607.602 272,610.5C 178.886,607.136 108.552,565.803 61,486.5C 26.1834,419.297 22.1834,350.297 49,279.5C 85.9204,196.272 149.42,147.105 239.5,132C 249.987,131.149 260.32,130.315 270.5,129.5 Z"/></g>
<g><path style="opacity:0.988" fill="#16A34A" d="M 1255.5,212.5 C 1272.17,212.5 1288.83,212.5 1305.5,212.5C 1305.17,250.506 1305.5,288.506 1306.5,326.5C 1334.31,308.204 1363.97,304.704 1395.5,316C 1424.74,330.608 1442.24,354.108 1448,386.5C 1455.23,423.306 1448.23,456.973 1427,487.5C 1404.16,512.337 1375.99,521.837 1342.5,516C 1328.78,513.817 1316.11,508.984 1304.5,501.5C 1303,505.355 1302.33,509.355 1302.5,513.5C 1286.83,513.5 1271.17,513.5 1255.5,513.5C 1255.5,413.167 1255.5,312.833 1255.5,212.5 Z M 1342.5,351.5 C 1365.42,348.314 1381.92,356.98 1392,377.5C 1398.13,393.626 1400.13,410.293 1398,427.5C 1396.36,441.781 1390.86,454.281 1381.5,465C 1368.44,475.28 1353.77,478.28 1337.5,474C 1318.67,466.539 1307.84,452.705 1305,432.5C 1301.87,413.708 1303.54,395.374 1310,377.5C 1316.61,363.377 1327.44,354.71 1342.5,351.5 Z"/></g>
<g><path style="opacity:0.978" fill="#16A34A" d="M 2692.5,212.5 C 2709.5,212.5 2726.5,212.5 2743.5,212.5C 2743.17,249.839 2743.5,287.173 2744.5,324.5C 2770.27,308.53 2797.6,305.363 2826.5,315C 2849.02,326.222 2862.52,344.389 2867,369.5C 2868.76,378.077 2869.76,386.743 2870,395.5C 2870.5,434.832 2870.67,474.165 2870.5,513.5C 2853.5,513.5 2836.5,513.5 2819.5,513.5C 2819.67,473.165 2819.5,432.832 2819,392.5C 2815.32,356.566 2796.16,344.066 2761.5,355C 2754.83,358.003 2749,362.169 2744,367.5C 2743.5,416.166 2743.33,464.832 2743.5,513.5C 2726.5,513.5 2709.5,513.5 2692.5,513.5C 2692.5,413.167 2692.5,312.833 2692.5,212.5 Z"/></g>
<g><path style="opacity:0.998" fill="#16A34A" d="M 446.5,276.5 C 444.932,274.069 443.432,274.069 442,276.5C 441,275.5 440,274.5 439,273.5C 438,273.833 437,274.167 436,274.5C 435,273.5 434,272.5 433,271.5C 432,271.833 431,272.167 430,272.5C 428.333,270.833 426.667,269.167 425,267.5C 423.434,268.061 422.101,267.394 421,265.5C 420.667,265.833 420.333,266.167 420,266.5C 413.755,260.255 407.921,254.421 402.5,249C 402.833,248.667 403.167,248.333 403.5,248C 400.374,245.55 398.041,242.55 396.5,239C 396.833,238.667 397.167,238.333 397.5,238C 396.167,236.667 394.833,235.333 393.5,234C 394.167,233.333 394.833,232.667 395.5,232C 394.167,230.667 392.833,229.333 391.5,228C 392.823,227.184 393.489,226.017 393.5,224.5C 405.968,218.769 417.634,211.769 428.5,203.5C 440.187,223.398 446.521,244.898 447.5,268C 447.452,270.919 447.119,273.752 446.5,276.5 Z"/></g>
<g><path style="opacity:0.988" fill="#16A34A" d="M 798.5,227.5 C 830.287,224.464 860.62,229.631 889.5,243C 888.633,259.802 886.8,276.636 884,293.5C 853.333,277.833 821.166,273.667 787.5,281C 755.802,292.045 736.969,314.212 731,347.5C 725.275,376.943 729.275,404.943 743,431.5C 760.154,457.164 784.321,469.83 815.5,469.5C 829.743,469.06 843.743,466.894 857.5,463C 866.497,459.724 875.497,456.557 884.5,453.5C 886.807,470.09 888.473,486.59 889.5,503C 839.955,525.227 790.622,524.894 741.5,502C 697.792,475.798 674.625,436.964 672,385.5C 668.035,337.042 683.201,295.875 717.5,262C 741.24,242.795 768.24,231.295 798.5,227.5 Z"/></g>
<g><path style="opacity:0.985" fill="#16A34A" d="M 2003.5,233.5 C 2022.66,232.338 2042,232.171 2061.5,233C 2082.67,264.327 2104,295.494 2125.5,326.5C 2146.71,295.247 2168.04,264.08 2189.5,233C 2208.51,232.167 2227.51,232.334 2246.5,233.5C 2215.83,278.833 2185.17,324.167 2154.5,369.5C 2186.59,417.34 2218.92,465.006 2251.5,512.5C 2232.17,513.833 2212.83,513.833 2193.5,512.5C 2170.91,478.993 2148.08,445.66 2125,412.5C 2102.29,446.087 2079.46,479.587 2056.5,513C 2037.5,513.5 2018.5,513.667 1999.5,513.5C 2031.3,465.258 2063.64,417.258 2096.5,369.5C 2065.48,324.101 2034.48,278.767 2003.5,233.5 Z"/></g>
<g><path style="opacity:0.99" fill="#16A34A" d="M 357.5,243.5 C 356.215,245.806 356.882,247.639 359.5,249C 359.167,249.333 358.833,249.667 358.5,250C 359.5,251.667 360.5,253.333 361.5,255C 361.167,255.333 360.833,255.667 360.5,256C 362.167,257.667 363.833,259.333 365.5,261C 364.939,262.566 365.606,263.899 367.5,265C 367.167,265.333 366.833,265.667 366.5,266C 370.364,271.352 374.364,276.519 378.5,281.5C 369.225,289.438 360.225,297.771 351.5,306.5C 350.829,305.153 350.829,303.986 351.5,303C 348.5,300 345.5,297 342.5,294C 342.833,293.667 343.167,293.333 343.5,293C 341.833,291.333 340.167,289.667 338.5,288C 338.833,287.667 339.167,287.333 339.5,287C 337.833,285.333 336.167,283.667 334.5,282C 335.136,278.669 333.803,276.003 330.5,274C 331.061,272.434 330.394,271.101 328.5,270C 328.833,269.667 329.167,269.333 329.5,269C 327.759,267.917 327.093,266.75 327.5,265.5C 336.396,256.713 346.396,249.38 357.5,243.5 Z"/></g>
<g><path style="opacity:0.991" fill="#16A34A" d="M 393.5,224.5 C 393.489,226.017 392.823,227.184 391.5,228C 392.833,229.333 394.167,230.667 395.5,232C 394.833,232.667 394.167,233.333 393.5,234C 394.833,235.333 396.167,236.667 397.5,238C 397.167,238.333 396.833,238.667 396.5,239C 398.041,242.55 400.374,245.55 403.5,248C 403.167,248.333 402.833,248.667 402.5,249C 407.921,254.421 413.755,260.255 420,266.5C 420.333,266.167 420.667,265.833 421,265.5C 422.101,267.394 423.434,268.061 425,267.5C 426.667,269.167 428.333,270.833 430,272.5C 431,272.167 432,271.833 433,271.5C 434,272.5 435,273.5 436,274.5C 437,274.167 438,273.833 439,273.5C 440,274.5 441,275.5 442,276.5C 443.432,274.069 444.932,274.069 446.5,276.5C 445.852,289.427 442.852,301.76 437.5,313.5C 434.584,314.814 432.084,314.147 430,311.5C 428.221,312.479 426.555,312.146 425,310.5C 423.667,310.5 422.333,310.5 421,310.5C 418.667,308.833 416.333,307.167 414,305.5C 413,305.833 412,306.167 411,306.5C 409.333,304.833 407.667,303.167 406,301.5C 404.434,302.061 403.101,301.394 402,299.5C 401.667,299.833 401.333,300.167 401,300.5C 396.34,297.892 392.006,294.225 388,289.5C 387.667,289.833 387.333,290.167 387,290.5C 385.549,288.536 383.716,287.203 381.5,286.5C 386.796,279.869 392.463,273.535 398.5,267.5C 391.557,271.777 384.89,276.444 378.5,281.5C 374.364,276.519 370.364,271.352 366.5,266C 366.833,265.667 367.167,265.333 367.5,265C 365.606,263.899 364.939,262.566 365.5,261C 363.833,259.333 362.167,257.667 360.5,256C 360.833,255.667 361.167,255.333 361.5,255C 360.5,253.333 359.5,251.667 358.5,250C 358.833,249.667 359.167,249.333 359.5,249C 356.882,247.639 356.215,245.806 357.5,243.5C 369.184,236.657 381.184,230.324 393.5,224.5 Z"/></g>
<g><path style="opacity:0.989" fill="#16A34A" d="M 327.5,265.5 C 327.093,266.75 327.759,267.917 329.5,269C 329.167,269.333 328.833,269.667 328.5,270C 330.394,271.101 331.061,272.434 330.5,274C 333.803,276.003 335.136,278.669 334.5,282C 336.167,283.667 337.833,285.333 339.5,287C 339.167,287.333 338.833,287.667 338.5,288C 340.167,289.667 341.833,291.333 343.5,293C 343.167,293.333 342.833,293.667 342.5,294C 345.5,297 348.5,300 351.5,303C 350.829,303.986 350.829,305.153 351.5,306.5C 344.472,313.86 337.472,321.193 330.5,328.5C 325.241,322.882 320.241,317.048 315.5,311C 315.833,310.667 316.167,310.333 316.5,310C 314.833,308.333 313.167,306.667 311.5,305C 311.833,304.667 312.167,304.333 312.5,304C 310.833,302.333 309.167,300.667 307.5,299C 307.833,298.667 308.167,298.333 308.5,298C 307.211,296.198 305.544,295.031 303.5,294.5C 309.349,282.99 317.349,273.324 327.5,265.5 Z"/></g>
<g><path style="opacity:0.992" fill="#16A34A" d="M 381.5,286.5 C 383.716,287.203 385.549,288.536 387,290.5C 387.333,290.167 387.667,289.833 388,289.5C 392.006,294.225 396.34,297.892 401,300.5C 401.333,300.167 401.667,299.833 402,299.5C 403.101,301.394 404.434,302.061 406,301.5C 407.667,303.167 409.333,304.833 411,306.5C 412,306.167 413,305.833 414,305.5C 416.333,307.167 418.667,308.833 421,310.5C 422.333,310.5 423.667,310.5 425,310.5C 426.555,312.146 428.221,312.479 430,311.5C 432.084,314.147 434.584,314.814 437.5,313.5C 431.921,325.994 423.921,336.661 413.5,345.5C 412.992,343.767 412.159,343.434 411,344.5C 410.333,343.833 409.667,343.167 409,342.5C 407.667,342.5 406.333,342.5 405,342.5C 403.899,340.606 402.566,339.939 401,340.5C 399.899,338.606 398.566,337.939 397,338.5C 395.899,336.606 394.566,335.939 393,336.5C 391.899,334.606 390.566,333.939 389,334.5C 387.899,332.606 386.566,331.939 385,332.5C 381.333,329.5 377.667,326.5 374,323.5C 373.667,323.833 373.333,324.167 373,324.5C 368.564,320.572 364.731,316.239 361.5,311.5C 367.437,302.565 374.104,294.232 381.5,286.5 Z"/></g>
<g><path style="opacity:0.987" fill="#16A34A" d="M 303.5,294.5 C 305.544,295.031 307.211,296.198 308.5,298C 308.167,298.333 307.833,298.667 307.5,299C 309.167,300.667 310.833,302.333 312.5,304C 312.167,304.333 311.833,304.667 311.5,305C 313.167,306.667 314.833,308.333 316.5,310C 316.167,310.333 315.833,310.667 315.5,311C 320.241,317.048 325.241,322.882 330.5,328.5C 319.082,342.926 308.415,357.926 298.5,373.5C 288.175,346.424 289.842,320.091 303.5,294.5 Z"/></g>
<g><path style="opacity:0.968" fill="#16A34A" d="M 221.5,312.5 C 222.125,315.97 221.125,318.804 218.5,321C 218.833,321.333 219.167,321.667 219.5,322C 217.179,322.94 215.012,324.44 213,326.5C 209.408,326.87 206.075,326.87 203,326.5C 201.899,324.606 200.566,323.939 199,324.5C 197.964,321.636 196.131,319.636 193.5,318.5C 195.709,312.411 198.209,306.411 201,300.5C 207.354,305.423 214.187,309.423 221.5,312.5 Z"/></g>
<g><path style="opacity:0.973" fill="#16A34A" d="M 1216.5,308.5 C 1221.88,308.324 1227.21,308.658 1232.5,309.5C 1231.68,326.332 1230.18,342.999 1228,359.5C 1211.61,354.867 1196.44,357.367 1182.5,367C 1179.63,369.537 1177.13,372.37 1175,375.5C 1174.5,421.499 1174.33,467.499 1174.5,513.5C 1157.5,513.5 1140.5,513.5 1123.5,513.5C 1123.5,446.5 1123.5,379.5 1123.5,312.5C 1139.17,312.333 1154.84,312.5 1170.5,313C 1171.06,319.526 1171.89,326.026 1173,332.5C 1184.86,319.653 1199.36,311.653 1216.5,308.5 Z"/></g>
<g><path style="opacity:0.987" fill="#16A34A" d="M 1564.5,308.5 C 1600.58,305.352 1630.74,317.018 1655,343.5C 1676.64,373.344 1683.3,406.344 1675,442.5C 1662.13,486.367 1632.96,511.201 1587.5,517C 1536.64,521.587 1500.64,500.921 1479.5,455C 1466.04,415.947 1470.87,379.447 1494,345.5C 1512.31,323.261 1535.81,310.928 1564.5,308.5 Z M 1567.5,350.5 C 1601.79,349.611 1621.29,366.278 1626,400.5C 1628.63,418.376 1625.96,435.376 1618,451.5C 1604.44,471.851 1585.61,479.351 1561.5,474C 1544.76,468.929 1533.59,458.095 1528,441.5C 1521.24,418.509 1522.91,396.175 1533,374.5C 1540.83,361.171 1552.33,353.171 1567.5,350.5 Z"/></g>
<g><path style="opacity:0.987" fill="#16A34A" d="M 988.5,309.5 C 1005.76,308.24 1022.43,310.74 1038.5,317C 1059.7,329.209 1070.87,347.709 1072,372.5C 1072.33,396.833 1072.67,421.167 1073,445.5C 1073.19,453.218 1073.85,460.885 1075,468.5C 1075.83,472 1078,474.167 1081.5,475C 1086.49,475.499 1091.49,475.666 1096.5,475.5C 1095.68,489.553 1094.35,503.553 1092.5,517.5C 1083.16,517.666 1073.83,517.5 1064.5,517C 1048.83,515.423 1037,507.923 1029,494.5C 1015,508.077 998.168,515.577 978.5,517C 952.146,520.347 931.646,511.181 917,489.5C 907.13,468.81 907.13,448.143 917,427.5C 928.751,412.764 943.585,402.264 961.5,396C 980.994,389.584 1000.99,386.084 1021.5,385.5C 1022.3,367.55 1013.97,357.05 996.5,354C 973.46,352.014 951.96,356.847 932,368.5C 929.708,354.587 927.875,340.587 926.5,326.5C 946.408,317.692 967.075,312.025 988.5,309.5 Z M 1017.5,419.5 C 1019.17,419.5 1020.83,419.5 1022.5,419.5C 1022.67,434.504 1022.5,449.504 1022,464.5C 1007.21,477.991 990.375,481.491 971.5,475C 963.061,467.164 960.561,457.664 964,446.5C 967.112,439.721 971.945,434.555 978.5,431C 991.029,425.123 1004.03,421.29 1017.5,419.5 Z"/></g>
<g><path style="opacity:0.986" fill="#16A34A" d="M 1804.5,309.5 C 1848.57,306.757 1875.74,326.757 1886,369.5C 1887.54,376.422 1888.54,383.422 1889,390.5C 1889.5,431.499 1889.67,472.499 1889.5,513.5C 1872.5,513.5 1855.5,513.5 1838.5,513.5C 1838.67,472.499 1838.5,431.499 1838,390.5C 1833.65,357.179 1815.15,345.012 1782.5,354C 1775.04,357.143 1768.54,361.643 1763,367.5C 1762.5,416.166 1762.33,464.832 1762.5,513.5C 1745.83,513.5 1729.17,513.5 1712.5,513.5C 1712.5,446.5 1712.5,379.5 1712.5,312.5C 1728.17,312.5 1743.83,312.5 1759.5,312.5C 1759.33,316.182 1759.5,319.848 1760,323.5C 1760.31,324.308 1760.81,324.975 1761.5,325.5C 1774.59,316.583 1788.93,311.249 1804.5,309.5 Z"/></g>
<g><path style="opacity:0.986" fill="#16A34A" d="M 2338.5,309.5 C 2354.31,308.449 2369.65,310.616 2384.5,316C 2403.45,324.963 2414.95,339.796 2419,360.5C 2419.83,365.143 2420.5,369.81 2421,374.5C 2421.08,404.856 2421.75,435.189 2423,465.5C 2423.56,468.872 2425.06,471.705 2427.5,474C 2433.41,475.361 2439.41,475.861 2445.5,475.5C 2444.39,489.521 2443.05,503.521 2441.5,517.5C 2432.16,517.666 2422.83,517.5 2413.5,517C 2397.87,515.437 2386.03,507.937 2378,494.5C 2361.2,510.214 2341.2,517.881 2318,517.5C 2275.46,514.281 2255.79,491.281 2259,448.5C 2261.8,430.039 2271.3,416.205 2287.5,407C 2313.28,392.807 2340.95,385.64 2370.5,385.5C 2371.1,367.627 2362.77,357.127 2345.5,354C 2322.46,352.014 2300.96,356.847 2281,368.5C 2280.67,368.167 2280.33,367.833 2280,367.5C 2278.03,353.803 2276.86,340.136 2276.5,326.5C 2296.34,317.375 2317.01,311.709 2338.5,309.5 Z M 2366.5,419.5 C 2368.17,419.5 2369.83,419.5 2371.5,419.5C 2371.67,434.504 2371.5,449.504 2371,464.5C 2356.25,477.984 2339.41,481.484 2320.5,475C 2311.2,466.129 2309.04,455.629 2314,443.5C 2318.37,436.898 2324.2,432.065 2331.5,429C 2342.77,423.911 2354.44,420.745 2366.5,419.5 Z"/></g>
<g><path style="opacity:0.986" fill="#16A34A" d="M 2565.5,309.5 C 2610.4,306.901 2637.56,327.568 2647,371.5C 2647.83,376.143 2648.5,380.81 2649,385.5C 2649.5,428.165 2649.67,470.832 2649.5,513.5C 2632.83,513.5 2616.17,513.5 2599.5,513.5C 2599.67,475.165 2599.5,436.832 2599,398.5C 2597.88,359.039 2578.38,344.539 2540.5,355C 2533.5,358 2527.67,362.5 2523,368.5C 2522.5,416.832 2522.33,465.166 2522.5,513.5C 2505.83,513.5 2489.17,513.5 2472.5,513.5C 2472.5,446.5 2472.5,379.5 2472.5,312.5C 2488.17,312.5 2503.83,312.5 2519.5,312.5C 2519.87,316.871 2520.54,321.204 2521.5,325.5C 2535.02,316.773 2549.69,311.439 2565.5,309.5 Z"/></g>
<g><path style="opacity:0.991" fill="#16A34A" d="M 361.5,311.5 C 364.731,316.239 368.564,320.572 373,324.5C 373.333,324.167 373.667,323.833 374,323.5C 377.667,326.5 381.333,329.5 385,332.5C 386.566,331.939 387.899,332.606 389,334.5C 390.566,333.939 391.899,334.606 393,336.5C 394.566,335.939 395.899,336.606 397,338.5C 398.566,337.939 399.899,338.606 401,340.5C 402.566,339.939 403.899,340.606 405,342.5C 406.333,342.5 407.667,342.5 409,342.5C 409.667,343.167 410.333,343.833 411,344.5C 412.159,343.434 412.992,343.767 413.5,345.5C 404.301,354.355 393.968,361.688 382.5,367.5C 382.607,365.621 382.107,365.288 381,366.5C 379.899,364.606 378.566,363.939 377,364.5C 375.899,362.606 374.566,361.939 373,362.5C 371.899,360.606 370.566,359.939 369,360.5C 366.667,358.167 364.333,355.833 362,353.5C 360.434,354.061 359.101,353.394 358,351.5C 357.667,351.833 357.333,352.167 357,352.5C 352.828,347.611 348.328,343.777 343.5,341C 344.598,340.23 344.598,339.397 343.5,338.5C 348.759,328.976 354.759,319.976 361.5,311.5 Z"/></g>
<g><path style="opacity:0.992" fill="#16A34A" d="M 221.5,312.5 C 226.689,314.597 231.689,316.93 236.5,319.5C 235.448,319.351 234.448,319.517 233.5,320C 233.833,320.333 234.167,320.667 234.5,321C 231.447,328.143 227.114,333.643 221.5,337.5C 221.5,338.167 221.833,338.5 222.5,338.5C 222.5,339.167 222.833,339.5 223.5,339.5C 223.833,340.167 224.167,340.833 224.5,341.5C 219.196,343.753 213.362,345.42 207,346.5C 201.872,344.938 197.039,343.605 192.5,342.5C 191.213,334.489 191.547,326.489 193.5,318.5C 196.131,319.636 197.964,321.636 199,324.5C 200.566,323.939 201.899,324.606 203,326.5C 206.075,326.87 209.408,326.87 213,326.5C 215.012,324.44 217.179,322.94 219.5,322C 219.167,321.667 218.833,321.333 218.5,321C 221.125,318.804 222.125,315.97 221.5,312.5 Z"/></g>
<g><path style="opacity:0.98" fill="#16A34A" d="M 236.5,319.5 C 244.594,322.605 251.594,327.272 257.5,333.5C 255.91,336.426 254.41,339.426 253,342.5C 249.214,346.097 246.047,350.097 243.5,354.5C 236.815,349.476 230.148,344.476 223.5,339.5C 222.833,339.5 222.5,339.167 222.5,338.5C 221.833,338.5 221.5,338.167 221.5,337.5C 227.114,333.643 231.447,328.143 234.5,321C 234.167,320.667 233.833,320.333 233.5,320C 234.448,319.517 235.448,319.351 236.5,319.5 Z"/></g>
<g><path style="opacity:0.988" fill="#16A34A" d="M 343.5,338.5 C 344.598,339.397 344.598,340.23 343.5,341C 348.328,343.777 352.828,347.611 357,352.5C 357.333,352.167 357.667,351.833 358,351.5C 359.101,353.394 360.434,354.061 362,353.5C 364.333,355.833 366.667,358.167 369,360.5C 370.566,359.939 371.899,360.606 373,362.5C 374.566,361.939 375.899,362.606 377,364.5C 378.566,363.939 379.899,364.606 381,366.5C 382.107,365.288 382.607,365.621 382.5,367.5C 370.656,372.582 359.656,378.915 349.5,386.5C 348.619,384.034 346.786,381.7 344,379.5C 342.434,380.061 341.101,379.394 340,377.5C 339.667,377.833 339.333,378.167 339,378.5C 334.949,373.548 330.449,369.882 325.5,367.5C 331.264,357.63 337.264,347.963 343.5,338.5 Z"/></g>
<g><path style="opacity:0.997" fill="#16A34A" d="M 83.5,345.5 C 82.5477,347.112 82.2144,348.612 82.5,350C 83.5,351.667 84.5,353.333 85.5,355C 82.8333,356.333 82.8333,357.667 85.5,359C 84.5,360 83.5,361 82.5,362C 82.8333,364.333 83.1667,366.667 83.5,369C 82.5,370 81.5,371 80.5,372C 80.8333,373 81.1667,374 81.5,375C 80.5,376 79.5,377 78.5,378C 78.8333,379 79.1667,380 79.5,381C 77.1667,383.333 74.8333,385.667 72.5,388C 72.8333,388.333 73.1667,388.667 73.5,389C 70.5562,391.189 68.7228,393.689 68,396.5C 67.6667,396.167 67.3333,395.833 67,395.5C 64.295,398.036 61.795,400.703 59.5,403.5C 50.7489,387.936 46.7489,371.102 47.5,353C 47.8333,348.833 48.1667,344.667 48.5,340.5C 52.9175,342.604 57.5842,343.771 62.5,344C 69.4998,344.577 76.4998,345.077 83.5,345.5 Z"/></g>
<g><path style="opacity:0.99" fill="#16A34A" d="M 83.5,345.5 C 94.8992,345.303 106.233,345.97 117.5,347.5C 117.264,353.049 117.264,358.549 117.5,364C 115.854,365.555 115.521,367.221 116.5,369C 115.833,370.333 115.167,371.667 114.5,373C 114.833,374.667 115.167,376.333 115.5,378C 113.536,379.451 112.203,381.284 111.5,383.5C 106.584,382.117 101.584,381.117 96.5,380.5C 101.833,383.167 107.167,385.833 112.5,388.5C 110.621,388.393 110.288,388.893 111.5,390C 107.167,396.333 102.833,402.667 98.5,409C 98.8333,409.333 99.1667,409.667 99.5,410C 93.3307,416.871 86.8307,422.704 80,427.5C 79.3292,426.748 78.4959,426.414 77.5,426.5C 69.9802,419.985 63.9802,412.319 59.5,403.5C 61.795,400.703 64.295,398.036 67,395.5C 67.3333,395.833 67.6667,396.167 68,396.5C 68.7228,393.689 70.5562,391.189 73.5,389C 73.1667,388.667 72.8333,388.333 72.5,388C 74.8333,385.667 77.1667,383.333 79.5,381C 79.1667,380 78.8333,379 78.5,378C 79.5,377 80.5,376 81.5,375C 81.1667,374 80.8333,373 80.5,372C 81.5,371 82.5,370 83.5,369C 83.1667,366.667 82.8333,364.333 82.5,362C 83.5,361 84.5,360 85.5,359C 82.8333,357.667 82.8333,356.333 85.5,355C 84.5,353.333 83.5,351.667 82.5,350C 82.2144,348.612 82.5477,347.112 83.5,345.5 Z"/></g>
<g><path style="opacity:0.977" fill="#16A34A" d="M 257.5,333.5 C 263.977,338.307 268.977,344.307 272.5,351.5C 267.501,357.478 262.501,363.478 257.5,369.5C 252.861,364.526 248.195,359.526 243.5,354.5C 246.047,350.097 249.214,346.097 253,342.5C 254.41,339.426 255.91,336.426 257.5,333.5 Z"/></g>
<g><path style="opacity:0.986" fill="#16A34A" d="M 117.5,347.5 C 127.249,348.115 136.582,350.115 145.5,353.5C 145.953,354.458 146.619,355.292 147.5,356C 148.061,357.566 147.394,358.899 145.5,360C 148.167,361.333 148.167,362.667 145.5,364C 144.903,368.229 144.903,372.229 145.5,376C 142.751,379.426 142.085,382.76 143.5,386C 141.238,388.253 140.572,390.753 141.5,393.5C 131.699,389.566 121.699,386.233 111.5,383.5C 112.203,381.284 113.536,379.451 115.5,378C 115.167,376.333 114.833,374.667 114.5,373C 115.167,371.667 115.833,370.333 116.5,369C 115.521,367.221 115.854,365.555 117.5,364C 117.264,358.549 117.264,353.049 117.5,347.5 Z"/></g>
<g><path style="opacity:0.982" fill="#16A34A" d="M 224.5,341.5 C 229.843,346.844 234.843,352.511 239.5,358.5C 234.269,359.532 229.436,361.532 225,364.5C 224.667,364.167 224.333,363.833 224,363.5C 216.976,365.272 209.809,366.938 202.5,368.5C 196.974,360.765 193.641,352.098 192.5,342.5C 197.039,343.605 201.872,344.938 207,346.5C 213.362,345.42 219.196,343.753 224.5,341.5 Z"/></g>
<g><path style="opacity:0.988" fill="#16A34A" d="M 272.5,351.5 C 278.021,364.177 278.855,377.177 275,390.5C 274.333,391.833 273.667,391.833 273,390.5C 268.312,383.114 263.145,376.114 257.5,369.5C 262.501,363.478 267.501,357.478 272.5,351.5 Z"/></g>
<g><path style="opacity:0.99" fill="#16A34A" d="M 145.5,353.5 C 157.148,356.49 167.482,361.823 176.5,369.5C 175.118,370.801 173.452,371.634 171.5,372C 171.833,372.333 172.167,372.667 172.5,373C 171.726,375.405 171.226,377.905 171,380.5C 170.5,381 170,381.5 169.5,382C 169.833,383.667 170.167,385.333 170.5,387C 169.5,388 168.5,389 167.5,390C 167.833,391 168.167,392 168.5,393C 167.676,396.615 166.676,400.115 165.5,403.5C 157.586,399.973 149.586,396.639 141.5,393.5C 140.572,390.753 141.238,388.253 143.5,386C 142.085,382.76 142.751,379.426 145.5,376C 144.903,372.229 144.903,368.229 145.5,364C 148.167,362.667 148.167,361.333 145.5,360C 147.394,358.899 148.061,357.566 147.5,356C 146.619,355.292 145.953,354.458 145.5,353.5 Z"/></g>
<g><path style="opacity:0.985" fill="#16A34A" d="M 176.5,369.5 C 193.384,384.097 203.051,402.597 205.5,425C 205.15,426.257 204.483,426.591 203.5,426C 191.301,417.733 178.634,410.233 165.5,403.5C 166.676,400.115 167.676,396.615 168.5,393C 168.167,392 167.833,391 167.5,390C 168.5,389 169.5,388 170.5,387C 170.167,385.333 169.833,383.667 169.5,382C 170,381.5 170.5,381 171,380.5C 171.226,377.905 171.726,375.405 172.5,373C 172.167,372.667 171.833,372.333 171.5,372C 173.452,371.634 175.118,370.801 176.5,369.5 Z"/></g>
<g><path style="opacity:0.985" fill="#16A34A" d="M 239.5,358.5 C 243.092,363.357 246.425,368.357 249.5,373.5C 248.746,375.505 247.579,376.172 246,375.5C 238.755,380.798 230.921,384.131 222.5,385.5C 217.882,383.185 213.549,380.352 209.5,377C 206.577,374.584 204.243,371.75 202.5,368.5C 209.809,366.938 216.976,365.272 224,363.5C 224.333,363.833 224.667,364.167 225,364.5C 229.436,361.532 234.269,359.532 239.5,358.5 Z"/></g>
<g><path style="opacity:0.99" fill="#16A34A" d="M 325.5,367.5 C 330.449,369.882 334.949,373.548 339,378.5C 339.333,378.167 339.667,377.833 340,377.5C 341.101,379.394 342.434,380.061 344,379.5C 346.786,381.7 348.619,384.034 349.5,386.5C 338.004,400.164 328.004,414.83 319.5,430.5C 313.754,426.082 307.754,422.082 301.5,418.5C 307.623,400.589 315.623,383.589 325.5,367.5 Z"/></g>
<g><path style="opacity:0.966" fill="#16A34A" d="M 249.5,373.5 C 256.687,383.355 263.021,393.855 268.5,405C 266.447,405.325 264.447,404.991 262.5,404C 256.947,401.39 251.281,399.057 245.5,397C 237.387,393.812 229.721,389.979 222.5,385.5C 230.921,384.131 238.755,380.798 246,375.5C 247.579,376.172 248.746,375.505 249.5,373.5 Z"/></g>
<g><path style="opacity:0.992" fill="#16A34A" d="M 112.5,388.5 C 120.647,391.739 128.314,395.739 135.5,400.5C 136.166,402.506 136.166,404.34 135.5,406C 132.972,411.969 129.305,417.636 124.5,423C 124.833,423.333 125.167,423.667 125.5,424C 120.082,429.339 115.915,434.172 113,438.5C 112.667,438.167 112.333,437.833 112,437.5C 111.667,438.5 111.333,439.5 111,440.5C 109.32,441.47 107.82,442.47 106.5,443.5C 95.3889,440.118 85.7222,434.451 77.5,426.5C 78.4959,426.414 79.3292,426.748 80,427.5C 86.8307,422.704 93.3307,416.871 99.5,410C 99.1667,409.667 98.8333,409.333 98.5,409C 102.833,402.667 107.167,396.333 111.5,390C 110.288,388.893 110.621,388.393 112.5,388.5 Z"/></g>
<g><path style="opacity:0.988" fill="#16A34A" d="M 135.5,400.5 C 144.181,404.502 152.181,409.502 159.5,415.5C 158.689,419.084 157.023,422.251 154.5,425C 154.833,425.333 155.167,425.667 155.5,426C 153.912,429.655 151.246,432.989 147.5,436C 147.833,436.333 148.167,436.667 148.5,437C 145.865,438.961 144.031,441.461 143,444.5C 141.223,446.79 139.056,448.457 136.5,449.5C 126.012,449.373 116.012,447.373 106.5,443.5C 107.82,442.47 109.32,441.47 111,440.5C 111.333,439.5 111.667,438.5 112,437.5C 112.333,437.833 112.667,438.167 113,438.5C 115.915,434.172 120.082,429.339 125.5,424C 125.167,423.667 124.833,423.333 124.5,423C 129.305,417.636 132.972,411.969 135.5,406C 136.166,404.34 136.166,402.506 135.5,400.5 Z"/></g>
<g><path style="opacity:0.988" fill="#16A34A" d="M 159.5,415.5 C 167.188,420.008 174.522,425.008 181.5,430.5C 181.489,432.017 180.823,433.184 179.5,434C 179.833,434.333 180.167,434.667 180.5,435C 178.833,436.667 177.167,438.333 175.5,440C 175.833,440.333 176.167,440.667 176.5,441C 174.959,444.55 172.626,447.55 169.5,450C 169.619,451.145 169.952,452.312 170.5,453.5C 166.873,452.571 163.207,451.737 159.5,451C 151.656,450.829 143.989,450.329 136.5,449.5C 139.056,448.457 141.223,446.79 143,444.5C 144.031,441.461 145.865,438.961 148.5,437C 148.167,436.667 147.833,436.333 147.5,436C 151.246,432.989 153.912,429.655 155.5,426C 155.167,425.667 154.833,425.333 154.5,425C 157.023,422.251 158.689,419.084 159.5,415.5 Z"/></g>
<g><path style="opacity:0.973" fill="#16A34A" d="M 301.5,418.5 C 307.754,422.082 313.754,426.082 319.5,430.5C 311.114,447.256 304.447,464.589 299.5,482.5C 297.537,481.04 295.704,479.373 294,477.5C 292.434,478.061 291.101,477.394 290,475.5C 289.014,476.171 287.847,476.171 286.5,475.5C 289.291,455.814 294.291,436.814 301.5,418.5 Z"/></g>
<g><path style="opacity:0.978" fill="#16A34A" d="M 181.5,430.5 C 189.764,435.767 197.431,441.767 204.5,448.5C 203.238,453.852 200.238,459.019 195.5,464C 196.171,464.986 196.171,466.153 195.5,467.5C 187.584,462.043 179.251,457.377 170.5,453.5C 169.952,452.312 169.619,451.145 169.5,450C 172.626,447.55 174.959,444.55 176.5,441C 176.167,440.667 175.833,440.333 175.5,440C 177.167,438.333 178.833,436.667 180.5,435C 180.167,434.667 179.833,434.333 179.5,434C 180.823,433.184 181.489,432.017 181.5,430.5 Z"/></g>
<g><path style="opacity:0.989" fill="#16A34A" d="M 251.5,468.5 C 261.167,468.5 270.833,468.5 280.5,468.5C 277.405,490.716 275.905,513.05 276,535.5C 265.126,512.231 251.626,490.731 235.5,471C 240.841,469.882 246.174,469.048 251.5,468.5 Z"/></g>
<g><path style="opacity:0.997" fill="#16A34A" d="M 309.5,470.5 C 349.895,472.597 387.895,483.097 423.5,502C 429.459,505.902 434.959,510.402 440,515.5C 440.667,516.5 440.667,517.5 440,518.5C 401.534,560.987 353.701,585.987 296.5,593.5C 293.588,589.757 292.254,585.424 292.5,580.5C 294.63,543.255 300.297,506.589 309.5,470.5 Z"/></g>
<g><path style="opacity:0.969" fill="#16A34A" d="M 204.5,448.5 C 221.738,463.327 236.404,480.327 248.5,499.5C 246.704,500.793 245.037,502.293 243.5,504C 243.833,504.333 244.167,504.667 244.5,505C 242.393,506.264 241.393,508.097 241.5,510.5C 228.106,494.106 212.772,479.773 195.5,467.5C 196.171,466.153 196.171,464.986 195.5,464C 200.238,459.019 203.238,453.852 204.5,448.5 Z"/></g>
<g><path style="opacity:0.953" fill="#16A34A" d="M 286.5,475.5 C 287.847,476.171 289.014,476.171 290,475.5C 291.101,477.394 292.434,478.061 294,477.5C 295.704,479.373 297.537,481.04 299.5,482.5C 293.368,513.258 288.868,544.258 286,575.5C 281.217,542.119 281.384,508.786 286.5,475.5 Z"/></g>
<g><path style="opacity:0.996" fill="#16A34A" d="M 191.5,475.5 C 193.199,475.34 194.866,475.506 196.5,476C 220.923,494.088 240.757,516.255 256,542.5C 264,556.5 272,570.5 280,584.5C 281.043,587.757 281.543,591.09 281.5,594.5C 210.42,595.865 150.92,570.531 103,518.5C 102.333,517.5 102.333,516.5 103,515.5C 118.504,501.329 136.337,491.162 156.5,485C 168.25,481.649 179.916,478.482 191.5,475.5 Z"/></g>
<g><path style="opacity:0.879" fill="#16A34A" d="M 248.5,499.5 C 263.776,522.892 275.443,548.059 283.5,575C 282.668,575.688 282.002,575.521 281.5,574.5C 269.658,552.129 256.324,530.796 241.5,510.5C 241.393,508.097 242.393,506.264 244.5,505C 244.167,504.667 243.833,504.333 243.5,504C 245.037,502.293 246.704,500.793 248.5,499.5 Z"/></g>
</svg>
